<svg xmlns="http://www.w3.org/2000/svg" width="1024" height="1024" viewBox="0 0 1024 1024">
<g>
<path d="M 0.00 0.00 L 1024.00 0.00 L 1024.00 1024.00 L 0.00 1024.00 ZM 350.50 624.40 C357.93,625.15 391.42,623.89 403.50,622.40 C423.22,619.99 448.49,614.94 478.21,607.47 C490.23,604.45 497.57,603.08 499.63,603.46 C501.36,603.78 507.43,605.80 513.13,607.95 C533.61,615.67 547.88,618.44 567.00,618.43 C582.18,618.43 590.92,616.92 608.50,611.28 C629.29,604.60 650.62,593.03 662.38,582.05 C669.05,575.82 674.58,567.71 681.96,553.33 C687.81,541.92 688.81,540.60 698.07,532.04 C714.95,516.42 726.56,498.56 731.16,481.12 C733.56,472.01 734.04,454.51 732.14,445.50 C728.44,427.98 718.58,407.53 706.62,392.60 C699.64,383.88 677.97,363.12 670.10,357.61 C651.49,344.61 641.84,341.53 622.01,342.26 C610.31,342.69 606.85,343.24 596.19,346.37 C589.42,348.36 577.72,352.52 570.19,355.62 C552.73,362.81 545.76,364.52 528.50,365.85 C512.81,367.06 504.75,369.06 494.50,374.29 C482.31,380.50 472.62,390.29 457.88,411.26 C447.52,426.00 440.55,434.66 433.54,441.50 C410.95,463.54 398.72,494.66 402.00,521.75 C403.97,538.01 408.75,548.48 418.97,558.90 C427.55,567.66 434.68,572.41 452.18,581.05 C460.05,584.93 466.62,588.44 466.76,588.84 C466.91,589.24 459.48,590.35 450.26,591.30 C379.03,598.65 329.31,594.26 305.59,578.52 C294.03,570.84 288.86,560.09 290.77,547.73 C294.39,524.32 320.38,495.96 364.00,467.82 C374.29,461.18 396.09,448.35 400.00,446.64 C400.91,446.24 400.72,446.15 399.50,446.41 C396.00,447.17 376.90,455.52 365.00,461.49 C345.57,471.24 313.00,491.71 313.00,494.18 C313.00,494.63 312.49,495.00 311.86,495.00 C310.01,495.00 297.14,505.76 288.00,514.96 C267.98,535.10 258.00,554.13 258.00,572.17 C258.00,582.71 260.85,589.05 269.41,597.54 C279.91,607.96 293.37,614.31 315.79,619.43 C325.09,621.55 332.11,622.56 350.50,624.40 ZM 709.05 608.56 C709.71,609.35 711.48,610.00 713.00,610.00 C716.47,610.00 718.24,607.92 717.82,604.33 C717.44,601.01 713.02,598.87 710.20,600.64 C708.11,601.95 707.43,606.61 709.05,608.56 ZM 342.65 407.17 C345.76,410.60 351.00,408.37 351.00,403.63 C351.00,400.68 349.19,399.00 346.00,399.00 C341.20,399.00 339.35,403.52 342.65,407.17 Z" fill="rgb(1,17,30)"/>
<path d="M 350.50 624.40 C332.11,622.56 325.09,621.55 315.79,619.43 C293.37,614.31 279.91,607.96 269.41,597.54 C260.85,589.05 258.00,582.71 258.00,572.17 C258.00,554.13 267.98,535.10 288.00,514.96 C297.14,505.76 310.01,495.00 311.86,495.00 C312.49,495.00 313.00,494.63 313.00,494.18 C313.00,491.71 345.57,471.24 365.00,461.49 C376.90,455.52 396.00,447.17 399.50,446.41 C400.28,446.24 400.64,446.22 400.56,446.33 C398.37,446.03 380.04,454.25 380.70,455.33 C381.06,455.91 380.70,456.10 379.83,455.77 C378.98,455.44 378.33,455.75 378.33,456.47 C378.33,457.89 381.71,456.73 388.50,452.98 C380.40,457.68 370.15,463.85 364.00,467.82 C320.38,495.96 294.39,524.32 290.77,547.73 C288.86,560.09 294.03,570.84 305.59,578.52 C329.31,594.26 379.03,598.65 450.26,591.30 C459.48,590.35 466.91,589.24 466.76,588.84 C466.66,588.57 463.58,586.85 459.13,584.55 C462.57,586.27 464.99,587.39 467.54,587.97 C472.55,589.12 478.03,588.20 492.71,585.76 C495.02,585.37 497.56,584.95 500.35,584.49 C526.75,580.16 550.79,575.22 571.50,569.86 C591.58,564.67 592.01,564.58 591.96,565.63 C591.91,567.00 583.53,572.00 571.00,578.15 C558.60,584.23 541.04,590.48 518.00,597.00 C510.02,599.26 502.63,601.36 501.57,601.68 C499.77,602.21 499.81,602.34 502.07,603.51 C503.37,604.18 504.92,604.89 506.65,605.62 C503.40,604.50 500.69,603.66 499.63,603.46 C497.57,603.08 490.23,604.45 478.21,607.47 C448.49,614.94 423.22,619.99 403.50,622.40 C391.42,623.89 357.93,625.15 350.50,624.40 ZM 709.05 608.56 C707.43,606.61 708.11,601.95 710.20,600.64 C713.02,598.87 717.44,601.01 717.82,604.33 C718.24,607.92 716.47,610.00 713.00,610.00 C711.48,610.00 709.71,609.35 709.05,608.56 ZM 649.00 590.70 C648.17,591.38 647.28,591.92 647.00,591.89 C642.16,591.43 643.46,583.92 648.72,581.91 C652.10,580.63 653.91,582.18 651.91,584.65 C650.85,585.96 650.83,586.19 651.82,585.59 C652.92,584.93 652.92,585.19 651.82,587.13 C651.10,588.41 649.83,590.02 649.00,590.70 ZM 571.35 618.38 C578.83,617.92 586.97,617.03 591.50,616.01 C602.39,613.56 615.10,609.25 626.06,604.56 C620.31,607.11 614.39,609.39 608.50,611.28 C592.67,616.36 584.01,618.09 571.35,618.38 ZM 520.64 610.65 C529.56,613.47 539.23,615.93 546.00,616.91 C547.74,617.16 549.54,617.43 551.15,617.67 C541.16,616.62 531.71,614.42 520.64,610.65 ZM 645.38 594.53 C646.15,594.00 646.86,593.49 647.52,592.99 C650.36,590.79 653.13,589.00 653.67,589.00 C653.72,589.00 653.76,588.99 653.82,588.98 C651.20,590.86 648.37,592.71 645.38,594.53 ZM 660.03 584.14 C663.20,581.17 666.86,577.32 669.48,574.12 C667.17,577.17 664.85,579.74 662.38,582.05 C661.63,582.75 660.85,583.45 660.03,584.14 ZM 674.71 566.39 C677.02,562.52 679.76,557.61 681.96,553.33 C679.35,558.40 676.98,562.69 674.71,566.39 Z" fill="rgb(125,198,218)"/>
<path d="M 571.35 618.38 C569.96,618.42 568.51,618.43 567.00,618.43 C561.39,618.44 556.20,618.20 551.15,617.67 C549.54,617.43 547.74,617.16 546.00,616.91 C539.23,615.93 529.56,613.47 520.64,610.65 C518.22,609.83 515.73,608.93 513.13,607.95 C510.94,607.13 508.69,606.32 506.65,605.62 C504.92,604.89 503.37,604.18 502.07,603.51 C499.81,602.34 499.77,602.21 501.57,601.68 C502.63,601.36 510.02,599.26 518.00,597.00 C541.04,590.48 558.60,584.23 571.00,578.15 C583.53,572.00 591.91,567.00 591.96,565.63 C592.01,564.58 591.58,564.67 571.50,569.86 C550.79,575.22 526.75,580.16 500.35,584.49 C497.56,584.95 495.02,585.37 492.71,585.76 C478.03,588.20 472.55,589.12 467.54,587.97 C464.99,587.39 462.57,586.27 459.13,584.55 C457.05,583.48 454.68,582.28 452.18,581.05 C445.78,577.89 440.76,575.25 436.56,572.74 L 436.54 572.73 C436.44,572.67 436.34,572.61 436.25,572.55 C429.84,568.71 425.32,565.16 420.57,560.50 C420.04,559.98 419.51,559.45 418.97,558.90 L 418.97 558.90 C409.39,549.12 404.59,539.31 402.40,524.70 C403.30,528.29 405.19,530.16 409.08,533.29 C416.03,538.90 431.71,547.19 439.80,549.55 C442.93,550.45 449.76,551.81 454.99,552.57 C466.89,554.28 484.42,553.68 497.64,551.11 C503.06,550.06 513.80,546.86 521.50,544.00 C529.20,541.15 540.90,537.27 547.50,535.38 C578.68,526.46 596.51,519.31 616.50,507.69 C626.87,501.66 651.00,483.33 651.00,481.49 C651.00,481.25 649.63,480.34 647.96,479.48 C635.41,472.99 640.73,450.75 658.05,437.30 C666.24,430.94 673.06,428.09 680.21,428.04 C686.94,427.99 686.99,427.93 689.48,416.58 C691.35,408.04 691.90,392.07 690.65,382.65 C690.03,377.96 690.14,376.96 691.19,377.58 C692.25,378.21 689.25,374.78 685.74,371.09 C693.96,378.81 702.66,387.65 706.62,392.60 C718.58,407.53 728.44,427.98 732.14,445.50 C734.04,454.51 733.56,472.01 731.16,481.12 C726.56,498.56 714.95,516.42 698.07,532.04 C688.81,540.60 687.81,541.92 681.96,553.33 C679.76,557.61 677.02,562.52 674.71,566.39 L 674.71 566.39 C672.93,569.30 671.21,571.84 669.48,574.12 C666.86,577.32 663.20,581.17 660.03,584.14 C658.14,585.76 656.06,587.38 653.82,588.98 C653.76,588.99 653.72,589.00 653.67,589.00 C653.13,589.00 650.36,590.79 647.52,592.99 C646.86,593.49 646.15,594.00 645.38,594.53 C639.46,598.11 632.89,601.52 626.06,604.56 C615.10,609.25 602.39,613.56 591.50,616.01 C586.97,617.03 578.83,617.92 571.35,618.38 ZM 452.29 503.30 C452.63,504.21 451.76,504.64 449.46,504.70 C446.05,504.80 445.00,504.35 445.00,502.77 C445.00,502.28 445.52,502.20 446.15,502.60 C446.95,503.08 447.03,502.87 446.43,501.90 C445.95,501.13 445.69,499.66 445.86,498.64 C446.07,497.37 445.77,497.02 444.91,497.55 C444.02,498.11 443.85,497.82 444.33,496.58 C444.70,495.62 445.00,494.39 445.00,493.83 C445.00,491.87 447.46,493.69 448.01,496.07 C448.55,498.37 449.03,498.52 456.79,498.79 C467.91,499.18 467.92,502.00 456.81,502.00 C453.09,502.00 451.92,502.34 452.29,503.30 ZM 649.00 590.70 C649.83,590.02 651.10,588.41 651.82,587.13 C652.92,585.19 652.92,584.93 651.82,585.59 C650.83,586.19 650.85,585.96 651.91,584.65 C653.91,582.18 652.10,580.63 648.72,581.91 C643.46,583.92 642.16,591.43 647.00,591.89 C647.28,591.92 648.17,591.38 649.00,590.70 ZM 400.00 446.64 C398.43,447.33 393.95,449.82 388.50,452.98 C381.71,456.73 378.33,457.89 378.33,456.47 C378.33,455.75 378.98,455.44 379.83,455.77 C380.70,456.10 381.06,455.91 380.70,455.33 C380.04,454.25 398.37,446.03 400.56,446.33 C400.51,446.39 400.33,446.49 400.00,446.64 ZM 401.72 518.98 C401.05,510.70 401.78,502.09 403.77,493.51 C402.43,499.38 401.71,505.25 401.66,511.00 C401.63,514.22 401.64,516.83 401.72,518.98 ZM 668.76 356.68 C664.03,353.46 658.97,350.40 654.95,348.41 C652.22,347.06 649.80,345.97 647.47,345.10 C654.01,347.33 660.51,351.00 668.76,356.68 ZM 403.77 493.51 C408.03,474.80 418.56,456.13 433.50,441.54 C418.54,456.15 408.13,474.75 403.77,493.51 Z" fill="rgb(170,201,220)"/>
<path d="M 454.99 552.57 C449.76,551.81 442.93,550.45 439.80,549.55 C431.71,547.19 416.03,538.90 409.08,533.29 C402.04,527.62 401.53,526.08 401.66,511.00 C401.87,486.89 413.89,460.67 433.54,441.50 C440.55,434.66 447.52,426.00 457.88,411.26 C472.62,390.29 482.31,380.50 494.50,374.29 C504.75,369.06 512.81,367.06 528.50,365.85 C545.76,364.52 552.73,362.81 570.19,355.62 C577.72,352.52 589.42,348.36 596.19,346.37 C606.85,343.24 610.31,342.69 622.01,342.26 C637.57,341.68 643.64,342.82 654.95,348.41 C662.27,352.02 673.00,359.19 679.00,364.47 C683.38,368.32 692.96,378.63 691.19,377.58 C690.14,376.96 690.03,377.96 690.65,382.65 C691.90,392.07 691.35,408.04 689.48,416.58 C686.99,427.93 686.94,427.99 680.21,428.04 C673.06,428.09 666.24,430.94 658.05,437.30 C640.73,450.75 635.41,472.99 647.96,479.48 C649.63,480.34 651.00,481.25 651.00,481.49 C651.00,483.33 626.87,501.66 616.50,507.69 C596.51,519.31 578.68,526.46 547.50,535.38 C540.90,537.27 529.20,541.15 521.50,544.00 C513.80,546.86 503.06,550.06 497.64,551.11 C484.42,553.68 466.89,554.28 454.99,552.57 ZM 452.29 503.30 C451.92,502.34 453.09,502.00 456.81,502.00 C467.92,502.00 467.91,499.18 456.79,498.79 C449.03,498.52 448.55,498.37 448.01,496.07 C447.46,493.69 445.00,491.87 445.00,493.83 C445.00,494.39 444.70,495.62 444.33,496.58 C443.85,497.82 444.02,498.11 444.91,497.55 C445.77,497.02 446.07,497.37 445.86,498.64 C445.69,499.66 445.95,501.13 446.43,501.90 C447.03,502.87 446.95,503.08 446.15,502.60 C445.52,502.20 445.00,502.28 445.00,502.77 C445.00,504.35 446.05,504.80 449.46,504.70 C451.76,504.64 452.63,504.21 452.29,503.30 ZM 342.65 407.17 C339.35,403.52 341.20,399.00 346.00,399.00 C349.19,399.00 351.00,400.68 351.00,403.63 C351.00,408.37 345.76,410.60 342.65,407.17 Z" fill="rgb(230,240,243)"/>
</g>
</svg>
