<svg width="256" height="256" viewBox="0 0 256 256" xmlns="http://www.w3.org/2000/svg">
  <!-- Dark space theme with circular asteroid ring -->
  <!-- Asteroids orbit at different speeds and random positions -->

  <!-- Dark background circle -->
  <circle cx="128" cy="128" r="128" fill="#0a0e1a"/>

  <!-- Ring guide path (subtle) -->
  <circle cx="128" cy="128" r="70"
          fill="none"
          stroke="#2a3347"
          stroke-width="40"
          opacity="0.2"/>

  <!-- Asteroids orbiting at different speeds and random positions -->

  <!-- Large asteroid 1 - slow rotation (25s) -->
  <g transform="rotate(15 128 128)">
    <g transform="translate(0 58)">
      <path d="M 128,-12 L 136,-8 L 138,2 L 132,10 L 122,8 L 118,0 L 122,-10 Z"
            fill="#6b7b9e"
            stroke="#8a9ac0"
            stroke-width="1.5"/>
      <circle cx="126" cy="-3" r="2.5" fill="#4a5a7d" opacity="0.6"/>
      <circle cx="131" cy="2" r="1.8" fill="#4a5a7d" opacity="0.6"/>
    </g>
    <animateTransform
      attributeName="transform"
      type="rotate"
      from="15 128 128"
      to="375 128 128"
      dur="25s"
      repeatCount="indefinite"/>
  </g>

  <!-- Medium asteroid 1 - medium speed (18s) -->
  <g transform="rotate(85 128 128)">
    <g transform="translate(0 70)">
      <path d="M 128,-8 L 134,-5 L 135,1 L 131,7 L 124,6 L 121,0 L 124,-7 Z"
            fill="#7a8aad"
            stroke="#99aad1"
            stroke-width="1.5"/>
      <circle cx="127" cy="-2" r="1.5" fill="#5a6a8d" opacity="0.6"/>
    </g>
    <animateTransform
      attributeName="transform"
      type="rotate"
      from="85 128 128"
      to="445 128 128"
      dur="18s"
      repeatCount="indefinite"/>
  </g>

  <!-- Small asteroid 1 - fast rotation (12s) -->
  <g transform="rotate(140 128 128)">
    <g transform="translate(0 68)">
      <circle cx="128" cy="0" r="3" fill="#8a9ac0" opacity="0.8"/>
    </g>
    <animateTransform
      attributeName="transform"
      type="rotate"
      from="140 128 128"
      to="500 128 128"
      dur="12s"
      repeatCount="indefinite"/>
  </g>

  <!-- Large asteroid 2 - slow rotation (28s) -->
  <g transform="rotate(195 128 128)">
    <g transform="translate(0 62)">
      <path d="M 128,-10 L 135,-7 L 137,1 L 132,9 L 123,7 L 119,0 L 123,-9 Z"
            fill="#6b7b9e"
            stroke="#8a9ac0"
            stroke-width="1.5"/>
      <circle cx="127" cy="-2" r="2.2" fill="#4a5a7d" opacity="0.6"/>
      <circle cx="131" cy="3" r="1.6" fill="#4a5a7d" opacity="0.6"/>
    </g>
    <animateTransform
      attributeName="transform"
      type="rotate"
      from="195 128 128"
      to="555 128 128"
      dur="28s"
      repeatCount="indefinite"/>
  </g>

  <!-- Tiny asteroid 1 - very fast (10s) -->
  <g transform="rotate(245 128 128)">
    <g transform="translate(0 73)">
      <circle cx="128" cy="0" r="2.2" fill="#7a8aad" opacity="0.7"/>
    </g>
    <animateTransform
      attributeName="transform"
      type="rotate"
      from="245 128 128"
      to="605 128 128"
      dur="10s"
      repeatCount="indefinite"/>
  </g>

  <!-- Medium asteroid 2 - medium-slow (22s) -->
  <g transform="rotate(280 128 128)">
    <g transform="translate(0 66)">
      <path d="M 128,-7 L 134,-4 L 135,2 L 131,8 L 124,6 L 121,-1 L 124,-6 Z"
            fill="#8a9ac0"
            stroke="#aabae6"
            stroke-width="1.5"/>
      <circle cx="128" cy="1" r="1.4" fill="#6a7a9d" opacity="0.6"/>
    </g>
    <animateTransform
      attributeName="transform"
      type="rotate"
      from="280 128 128"
      to="640 128 128"
      dur="22s"
      repeatCount="indefinite"/>
  </g>

  <!-- Small asteroid 2 - fast (14s) -->
  <g transform="rotate(320 128 128)">
    <g transform="translate(0 71)">
      <circle cx="128" cy="0" r="2.8" fill="#6a7a9d" opacity="0.75"/>
    </g>
    <animateTransform
      attributeName="transform"
      type="rotate"
      from="320 128 128"
      to="680 128 128"
      dur="14s"
      repeatCount="indefinite"/>
  </g>

  <!-- Large asteroid 3 - medium (20s) -->
  <g transform="rotate(10 128 128)">
    <g transform="translate(0 60)">
      <path d="M 128,-11 L 136,-7 L 138,3 L 133,10 L 123,8 L 119,1 L 122,-9 Z"
            fill="#7a8aad"
            stroke="#99aad1"
            stroke-width="1.5"/>
      <circle cx="127" cy="-1" r="2.3" fill="#5a6a8d" opacity="0.6"/>
    </g>
    <animateTransform
      attributeName="transform"
      type="rotate"
      from="10 128 128"
      to="370 128 128"
      dur="20s"
      repeatCount="indefinite"/>
  </g>

  <!-- Tiny asteroid 2 - very fast (9s) -->
  <g transform="rotate(55 128 128)">
    <g transform="translate(0 74)">
      <circle cx="128" cy="0" r="2" fill="#8a9ac0" opacity="0.65"/>
    </g>
    <animateTransform
      attributeName="transform"
      type="rotate"
      from="55 128 128"
      to="415 128 128"
      dur="9s"
      repeatCount="indefinite"/>
  </g>

  <!-- Medium asteroid 3 - medium-fast (16s) -->
  <g transform="rotate(110 128 128)">
    <g transform="translate(0 67)">
      <path d="M 128,-6 L 133,-4 L 134,1 L 131,6 L 125,5 L 122,0 L 125,-5 Z"
            fill="#6b7b9e"
            stroke="#8a9ac0"
            stroke-width="1.5"/>
      <circle cx="128" cy="0" r="1.3" fill="#4a5a7d" opacity="0.6"/>
    </g>
    <animateTransform
      attributeName="transform"
      type="rotate"
      from="110 128 128"
      to="470 128 128"
      dur="16s"
      repeatCount="indefinite"/>
  </g>

  <!-- Small asteroid 3 - fast (13s) -->
  <g transform="rotate(165 128 128)">
    <g transform="translate(0 72)">
      <circle cx="128" cy="0" r="2.5" fill="#7a8aad" opacity="0.7"/>
    </g>
    <animateTransform
      attributeName="transform"
      type="rotate"
      from="165 128 128"
      to="525 128 128"
      dur="13s"
      repeatCount="indefinite"/>
  </g>

  <!-- Medium asteroid 4 - slow (24s) -->
  <g transform="rotate(220 128 128)">
    <g transform="translate(0 64)">
      <path d="M 128,-8 L 135,-5 L 136,2 L 132,8 L 124,6 L 121,-1 L 124,-7 Z"
            fill="#8a9ac0"
            stroke="#aabae6"
            stroke-width="1.5"/>
      <circle cx="129" cy="0" r="1.5" fill="#6a7a9d" opacity="0.6"/>
    </g>
    <animateTransform
      attributeName="transform"
      type="rotate"
      from="220 128 128"
      to="580 128 128"
      dur="24s"
      repeatCount="indefinite"/>
  </g>

  <!-- Tiny asteroid 3 - super fast (8s) -->
  <g transform="rotate(265 128 128)">
    <g transform="translate(0 75)">
      <circle cx="128" cy="0" r="1.8" fill="#6a7a9d" opacity="0.6"/>
    </g>
    <animateTransform
      attributeName="transform"
      type="rotate"
      from="265 128 128"
      to="625 128 128"
      dur="8s"
      repeatCount="indefinite"/>
  </g>

  <!-- Small asteroid 4 - medium (17s) -->
  <g transform="rotate(305 128 128)">
    <g transform="translate(0 69)">
      <circle cx="128" cy="0" r="2.6" fill="#8a9ac0" opacity="0.75"/>
    </g>
    <animateTransform
      attributeName="transform"
      type="rotate"
      from="305 128 128"
      to="665 128 128"
      dur="17s"
      repeatCount="indefinite"/>
  </g>

  <!-- Medium asteroid 5 - medium-slow (21s) -->
  <g transform="rotate(340 128 128)">
    <g transform="translate(0 65)">
      <path d="M 128,-7 L 134,-4 L 135,2 L 131,7 L 124,5 L 121,0 L 124,-6 Z"
            fill="#7a8aad"
            stroke="#99aad1"
            stroke-width="1.5"/>
      <circle cx="128" cy="-1" r="1.6" fill="#5a6a8d" opacity="0.6"/>
    </g>
    <animateTransform
      attributeName="transform"
      type="rotate"
      from="340 128 128"
      to="700 128 128"
      dur="21s"
      repeatCount="indefinite"/>
  </g>

  <!-- Tiny asteroid 4 - fast (11s) -->
  <g transform="rotate(30 128 128)">
    <g transform="translate(0 73)">
      <circle cx="128" cy="0" r="2.1" fill="#7a8aad" opacity="0.65"/>
    </g>
    <animateTransform
      attributeName="transform"
      type="rotate"
      from="30 128 128"
      to="390 128 128"
      dur="11s"
      repeatCount="indefinite"/>
  </g>

  <!-- Stars (background - static) -->
  <circle cx="40" cy="40" r="1.5" fill="#ffffff" opacity="0.6"/>
  <circle cx="216" cy="40" r="1" fill="#ffffff" opacity="0.5"/>
  <circle cx="230" cy="220" r="1.2" fill="#ffffff" opacity="0.7"/>
  <circle cx="30" cy="200" r="0.8" fill="#ffffff" opacity="0.4"/>
  <circle cx="220" cy="128" r="1" fill="#ffffff" opacity="0.5"/>
  <circle cx="36" cy="128" r="1.3" fill="#ffffff" opacity="0.6"/>
  <circle cx="180" cy="210" r="0.9" fill="#ffffff" opacity="0.5"/>
  <circle cx="50" cy="160" r="1.1" fill="#ffffff" opacity="0.6"/>
</svg>
